<?xml version="1.0" encoding="UTF-8" standalone="no"?>
<svg
   xmlns:dc="http://purl.org/dc/elements/1.1/"
   xmlns:cc="http://creativecommons.org/ns#"
   xmlns:rdf="http://www.w3.org/1999/02/22-rdf-syntax-ns#"
   xmlns:svg="http://www.w3.org/2000/svg"
   xmlns="http://www.w3.org/2000/svg"
   xmlns:sodipodi="http://sodipodi.sourceforge.net/DTD/sodipodi-0.dtd"
   xmlns:inkscape="http://www.inkscape.org/namespaces/inkscape"
   width="2048"
   height="512"
   viewBox="0 0 2048 512"
   version="1.1"
   id="svg8"
   inkscape:version="1.0.1 (0767f8302a, 2020-10-17)"
   sodipodi:docname="logo-text.svg"
   inkscape:export-filename="/home/tin/flinect/assets/logo/logos/logo-inverse.png"
   inkscape:export-xdpi="96"
   inkscape:export-ydpi="96">
  <defs
     id="defs2" />
  <sodipodi:namedview
     id="base"
     pagecolor="#ffffff"
     bordercolor="#666666"
     borderopacity="1.0"
     inkscape:pageopacity="0.0"
     inkscape:pageshadow="2"
     inkscape:zoom="0.70000001"
     inkscape:cx="957.42118"
     inkscape:cy="327.33964"
     inkscape:document-units="px"
     inkscape:current-layer="layer1"
     inkscape:document-rotation="0"
     showgrid="true"
     units="px"
     inkscape:pagecheckerboard="true"
     inkscape:showpageshadow="false"
     inkscape:window-width="2504"
     inkscape:window-height="1376"
     inkscape:window-x="2616"
     inkscape:window-y="27"
     inkscape:window-maximized="1">
    <inkscape:grid
       type="axonomgrid"
       id="grid3741"
       spacingy="32"
       units="px"
       empspacing="3"
       originx="6.9282" />
  </sodipodi:namedview>
  <metadata
     id="metadata5">
    <rdf:RDF>
      <cc:Work
         rdf:about="">
        <dc:format>image/svg+xml</dc:format>
        <dc:type
           rdf:resource="http://purl.org/dc/dcmitype/StillImage" />
        <dc:title />
      </cc:Work>
    </rdf:RDF>
  </metadata>
  <g
     inkscape:groupmode="layer"
     id="layer1"
     inkscape:label="Logo Text"
     style="display:inline">
    <path
       id="path3748-8-06-3-9-2-3-7-2-5-4"
       style="display:inline;fill:#212121;fill-opacity:1;stroke:none;stroke-width:1.50235;stroke-linecap:square;stroke-miterlimit:4;stroke-dasharray:none;paint-order:markers stroke fill"
       d="M 228.63086 0 L 200.91797 16 L 173.20508 32 L 145.49219 48 L 117.7793 64 L 90.066406 80 L 62.353516 96 L 34.640625 112 L 34.640625 144 L 34.640625 176 L 34.640625 208 L 62.353516 224 L 34.640625 240 L 34.640625 272 L 34.640625 304 L 34.640625 336 L 34.640625 368 L 34.640625 400 L 34.640625 432 L 34.640625 464 L 62.353516 480 L 90.066406 496 L 117.7793 512 L 145.49219 496 L 173.20508 480 L 200.91797 464 L 200.91797 432 L 228.63086 448 L 256.34375 464 L 311.76953 496 L 339.48242 512 L 367.19531 496 L 394.9082 480 L 422.62109 464 L 450.33398 448 L 478.04688 432 L 478.04688 400 L 478.04688 336 L 450.33398 320 L 422.62109 304 L 394.9082 288 L 367.19531 304 L 339.48242 320 L 256.34375 272 L 200.91797 240 L 173.20508 224 L 200.91797 208 L 228.63086 192 L 284.05664 224 L 311.76953 240 L 339.48242 256 L 367.19531 272 L 394.9082 288 L 422.62109 272 L 478.04688 240 L 478.04688 208 L 478.04688 176 L 478.04688 144 L 450.33398 128 L 422.62109 112 L 394.9082 96 L 367.19531 80 L 339.48242 64 L 311.76953 48 L 284.05664 32 L 256.34375 16 L 228.63086 0 z M 228.63086 64 L 256.34375 80 L 284.05664 96 L 311.76953 112 L 339.48242 128 L 367.19531 144 L 394.9082 160 L 422.62109 176 L 422.62109 208 L 394.9082 224 L 367.19531 208 L 339.48242 192 L 311.76953 176 L 284.05664 160 L 256.34375 144 L 228.63086 128 L 200.91797 144 L 173.20508 160 L 145.49219 176 L 117.7793 192 L 90.066406 176 L 90.066406 144 L 117.7793 128 L 145.49219 112 L 173.20508 96 L 200.91797 80 L 228.63086 64 z M 117.7793 256 L 145.49219 272 L 173.20508 288 L 200.91797 304 L 228.63086 320 L 256.34375 336 L 284.05664 352 L 311.76953 368 L 339.48242 384 L 367.19531 368 L 394.9082 352 L 422.62109 368 L 422.62109 400 L 394.9082 416 L 367.19531 432 L 339.48242 448 L 311.76953 432 L 284.05664 416 L 256.34375 400 L 228.63086 384 L 200.91797 368 L 173.20508 352 L 145.49219 368 L 145.49219 400 L 145.49219 432 L 117.7793 448 L 90.066406 432 L 90.066406 400 L 90.066406 368 L 90.066406 336 L 90.066406 304 L 90.066406 272 L 117.7793 256 z " />
    <text
       xml:space="preserve"
       style="font-style:normal;font-variant:normal;font-weight:bold;font-stretch:normal;font-size:375.681px;line-height:1.25;font-family:Prompt;-inkscape-font-specification:'Prompt Bold';fill:#212121;fill-opacity:1;stroke:none;stroke-width:1.95667;"
       x="575.13495"
       y="386.85611"
       id="text1321"><tspan
         sodipodi:role="line"
         id="tspan1319"
         x="575.13495"
         y="386.85611"
         style="font-style:normal;font-variant:normal;font-weight:bold;font-stretch:normal;font-size:375.681px;font-family:Prompt;-inkscape-font-specification:'Prompt Bold';stroke-width:1.95667;fill:#212121;fill-opacity:1;">FLINECT</tspan></text>
  </g>
</svg>
